<?xml version="1.0" encoding="utf-8"?><svg xmlns="http://www.w3.org/2000/svg" viewBox="0 0 512 512" width="512" height="512"><path class="acst0" fill="#f18618" d="M191.6 225.3v68l61.8 29.4 70.1-34L318 221l-60.5-35.3z"/><path d="M506.7 223.8c3.2-1.7 5.3-5.1 5.3-8.8v-70c0-3.6-2.1-7.1-5.3-8.8l-84.9-46.1c-1.5-.8-3.2-1.3-4.9-1.3-3.6 0-7 2-8.7 5.1-1.3 2.3-1.6 5-.9 7.6s2.4 4.7 4.7 6l4.2 2.3s-48.9 26.3-49 26.4c-3.2 1.7-5.3 5.2-5.3 8.8v61.1l-39 4.6L266 180v-24l59.7-32.2c3.2-1.7 5.3-5.1 5.3-8.8V62.1l11.3 6.3c1.5.8 3.2 1.3 4.9 1.3 3.6 0 7-2 8.7-5.1 1.3-2.3 1.6-5 .9-7.6s-2.4-4.7-4.7-6L260.7 1.2c-3-1.6-6.5-1.6-9.5 0l-91.3 49.7c-4.8 2.7-6.5 8.8-3.8 13.6 1.8 3.2 5.1 5.1 8.7 5.1 1.7 0 3.4-.4 4.9-1.3L181 62v53c0 3.7 2 7.1 5.3 8.8L246 156v24l-57 30.7-39-4.6V145c0-3.6-2.1-7.1-5.3-8.8l-49-26.4 4.2-2.3c2.3-1.3 4-3.4 4.7-6s.4-5.3-.9-7.6c-1.8-3.2-5.1-5.1-8.7-5.1-1.7 0-3.4.4-4.9 1.3L5.2 136.2c-3 1.7-5.2 5.2-5.2 8.8v70c0 3.7 2 7.1 5.3 8.8L65 256v7.1S5.3 295.2 5.3 295.3C2.1 296.9 0 300.4 0 304v70c0 3.7 2 7.1 5.3 8.8l82.9 43.9c1.4.7 2.9 1.1 4.5 1.1 3.8 0 7.2-2.1 8.9-5.5 1.2-2.4 1.4-5.1.5-7.6-.8-2.5-2.6-4.6-5-5.8l-.4-.2 48-25.9c3.2-1.7 5.3-5.1 5.3-8.8v-62.2l39.7-10.1L246 332v24s-59.7 32.1-59.7 32.2c-3.2 1.7-5.3 5.2-5.3 8.8v53.8l-12.4-6.2c-1.4-.7-2.9-1.1-4.5-1.1-3.8 0-7.3 2.1-9 5.5-1.2 2.4-1.4 5.1-.5 7.6.8 2.5 2.6 4.6 5 5.8l91.6 48.3c1.4.8 3.1 1.2 4.7 1.2s3.3-.4 4.7-1.2l91.6-48.3c2.4-1.2 4.2-3.3 5-5.8s.6-5.3-.5-7.6c-1.7-3.4-5.1-5.5-9-5.5-1.6 0-3.1.4-4.5 1.1l-12.4 6.2V397c0-3.6-2.1-7.1-5.3-8.8L266 356v-24l56.3-30.3 39.7 10.1V374c0 3.7 2 7.1 5.3 8.8l48 25.9-.4.2c-4.9 2.5-6.9 8.5-4.5 13.4 1.7 3.4 5.1 5.5 9 5.5 1.5 0 3.1-.4 4.5-1.1l82.9-43.9c3.2-1.7 5.3-5.1 5.3-8.8v-70c0-3.6-2.1-7.1-5.3-8.8L447 263v-7l59.7-32.2zm-136 69.5L331 283.2v-53.3l39-4.6 57 30.7v7.1l-56.3 30.2zM427 186v47.3L382 209v-47.3l45 24.3zm20 47.3V186l45-24.2V209l-45 24.3zm-10-111.9l43.9 23.6-43.9 23.6-43.9-23.6 43.9-23.6zm-171 11.9V86l45-24.2V109l-45 24.3zM256 21.4L299.9 45 256 68.6 212.1 45 256 21.4zm-55 40.3L246 86v47.3L201 109V61.7zm55 135.7l43.9 23.6-43.9 23.6-43.9-23.6 43.9-23.6zm-114.7 95.9L85 263v-7l57-30.7 39 4.6v53.3l-39.7 10.1zM130 161.7V209l-45 24.2V186l45-24.3zm-55-40.3l43.9 23.6L75 168.6 31.1 145 75 121.4zm-55 40.3L65 186v47.3L20 209v-47.3zm55 118.7l43.9 23.6L75 327.6 31.1 304 75 280.4zm-55 40.3L65 345v47.3L20 368v-47.3zm65 71.6V345l45-24.2V368l-45 24.3zm116-154.6l45 24.2v47.3L201 285v-47.3zM246 438v47.3L201 461v-47.3l45 24.3zm20 47.3V438l45-24.2V461l-45 24.3zm-10-64.7L212.1 397l43.9-23.6 43.9 23.6-43.9 23.6zm10-111.3V262l45-24.2V285l-45 24.3zm116 11.4l45 24.2v47.3L382 368v-47.3zm65 71.6V345l45-24.2V368l-45 24.3zm-10-64.7L393.1 304l43.9-23.6 43.9 23.6-43.9 23.6z"/><path d="M377.2 87.9c1.5.8 3.2 1.3 4.9 1.3 3.6 0 7-2 8.7-5.1 1.3-2.3 1.6-5 .9-7.6s-2.4-4.7-4.7-6c-1.5-.8-3.2-1.3-4.9-1.3-3.6 0-7 2-8.7 5.1-1.3 2.3-1.6 5-.9 7.6s2.4 4.7 4.7 6zM383.6 425.7c-1.6 0-3.1.4-4.5 1.1-4.9 2.5-6.9 8.5-4.5 13.4 1.7 3.4 5.1 5.5 9 5.5 1.6 0 3.1-.4 4.5-1.1 2.4-1.2 4.2-3.3 5-5.8s.6-5.3-.5-7.6c-1.7-3.4-5.2-5.5-9-5.5zM129.9 89.2c1.7 0 3.4-.4 4.9-1.3 2.3-1.3 4-3.4 4.7-6s.4-5.3-.9-7.6c-1.8-3.2-5.1-5.1-8.7-5.1-1.7 0-3.4.4-4.9 1.3-2.3 1.3-4 3.4-4.7 6s-.4 5.3.9 7.6c1.8 3.2 5.1 5.1 8.7 5.1zM132.9 426.8c-1.4-.7-2.9-1.1-4.5-1.1-3.8 0-7.3 2.1-8.9 5.5-1.2 2.4-1.4 5.1-.6 7.6s2.6 4.6 5 5.8c1.4.7 2.9 1.1 4.5 1.1 3.8 0 7.3-2.1 8.9-5.5 2.5-5 .5-11-4.4-13.4z"/></svg>